<svg width="25" height="25" viewBox="0 0 25 25" fill="none" xmlns="http://www.w3.org/2000/svg">
<g clip-path="url(#clip0_1_100)">
<path d="M22.5 2.5H21.25V1.25C21.25 0.5 20.75 0 20 0C19.25 0 18.75 0.5 18.75 1.25V2.5H6.25V1.25C6.25 0.5 5.75 0 5 0C4.25 0 3.75 0.5 3.75 1.25V2.5H1.25C0.625 2.5 0 3 0 3.75V21.25C0 22 0.625 22.5 1.25 22.5H8.875C8 21 7.5 19.25 7.5 17.5C7.5 12 12 7.5 17.5 7.5C19.875 7.5 22 8.375 23.75 9.75V3.75C23.75 3.125 23.125 2.5 22.5 2.5Z" fill="#EA5C29"/>
<path d="M17.5 10C13.375 10 10 13.375 10 17.5C10 21.625 13.375 25 17.5 25C21.625 25 25 21.625 25 17.5C25 13.375 21.625 10 17.5 10ZM20 18.75H17.5C16.75 18.75 16.25 18.25 16.25 17.5V13.75C16.25 13 16.75 12.5 17.5 12.5C18.25 12.5 18.75 13 18.75 13.75V16.25H20C20.75 16.25 21.25 16.75 21.25 17.5C21.25 18.25 20.75 18.75 20 18.75Z" fill="#EA5C29"/>
</g>
<defs>
<clipPath id="clip0_1_100">
<rect width="25" height="25" fill="white"/>
</clipPath>
</defs>
</svg>
