<svg width="25" height="25" viewBox="0 0 25 25" fill="none" xmlns="http://www.w3.org/2000/svg">
<g clip-path="url(#clip0_1_79)">
<path d="M18.2292 11.4585C14.4958 11.4585 11.4583 14.496 11.4583 18.2293C11.4583 21.9627 14.4958 25.0002 18.2292 25.0002C21.9625 25.0002 25 21.9627 25 18.2293C25 14.496 21.9625 11.4585 18.2292 11.4585ZM21.1635 16.9179L17.7781 20.8241C17.7078 20.9051 17.6216 20.9708 17.5248 21.017C17.4281 21.0633 17.3228 21.0891 17.2156 21.0929H17.1875C17.0849 21.093 16.9833 21.0727 16.8886 21.0334C16.7938 20.9941 16.7078 20.9364 16.6354 20.8637L14.8125 19.0408C14.6659 18.8942 14.5836 18.6955 14.5836 18.4882C14.5836 18.2809 14.6659 18.0821 14.8125 17.9356C14.9591 17.789 15.1578 17.7067 15.3651 17.7067C15.5724 17.7067 15.7711 17.789 15.9177 17.9356L17.1479 19.1647L19.9833 15.8929C20.122 15.7463 20.3118 15.659 20.5133 15.6491C20.7148 15.6392 20.9123 15.7075 21.0646 15.8398C21.2169 15.9721 21.3123 16.1581 21.3307 16.359C21.3491 16.5598 21.2892 16.7601 21.1635 16.9179ZM14 1.65641L4.54167 6.42725L0.78125 4.60433L10.0729 0.0834961C10.2812 -0.0206706 10.5312 -0.0206706 10.75 0.0834961L14 1.65641ZM20.0521 4.60433L10.4271 9.30225L6.82292 7.55225L6.30208 7.29183L15.7708 2.521L16.2917 2.78141L20.0521 4.60433ZM9.64583 16.0418C9.28637 17.471 9.28637 18.9669 9.64583 20.396V20.5418L0.427083 15.8022C0.299084 15.7358 0.191653 15.6357 0.116387 15.5127C0.0411198 15.3897 0.000876251 15.2485 0 15.1043L0 5.9585L3.90625 7.85433V11.1877C3.90625 11.6147 4.26042 11.9689 4.6875 11.9689C5.11458 11.9689 5.46875 11.6147 5.46875 11.1877V8.62516L5.98958 8.87516L9.65625 10.6564L9.64583 16.0418ZM20.8438 9.771C20.0208 9.51058 19.1354 9.37516 18.2292 9.37516C15.375 9.37516 12.8333 10.7293 11.2188 12.8335V10.646L20.8333 5.96891C20.8438 6.84391 20.8438 8.55225 20.8438 9.771Z" fill="#EA5C29"/>
</g>
<defs>
<clipPath id="clip0_1_79">
<rect width="25" height="25" fill="white"/>
</clipPath>
</defs>
</svg>
