<svg width="25" height="25" viewBox="0 0 25 25" fill="none" xmlns="http://www.w3.org/2000/svg">
<path d="M15.6571 3.93066H2.08569C1.68569 3.93066 1.3714 4.24495 1.3714 4.64495V13.2164C1.3714 13.6092 1.68569 13.9307 2.08569 13.9307H15.6571C16.05 13.9307 16.3714 13.6092 16.3714 13.2164V4.64495C16.3714 4.24495 16.05 3.93066 15.6571 3.93066ZM1.36426 17.5021C1.36426 17.8949 1.68569 18.2164 2.07854 18.2164H2.84997C3.14997 16.7235 4.37854 15.5521 5.90712 15.3592H2.08569C1.82854 15.3592 1.59283 15.3164 1.36426 15.2307V17.5021Z" fill="#EA5C29"/>
<path d="M22.0357 18.2165H22.9214C23.3143 18.2165 23.6357 17.8951 23.6357 17.5022V11.2451C23.6357 10.1236 20.9 7.5022 19.4 7.5022H17.8V13.2165C17.8 14.3951 16.8357 15.3593 15.6571 15.3593H6.83569C8.36426 15.5522 9.59284 16.7236 9.89284 18.2165H14.9928C15.3214 16.5736 16.7714 15.3236 18.5143 15.3236C20.25 15.3236 21.7071 16.5736 22.0357 18.2165ZM18.9714 9.25934C22.6285 9.08077 22.4785 12.8593 22.4785 12.8593H18.9714V9.25934Z" fill="#EA5C29"/>
<path d="M18.5114 21.0692C19.7027 21.0692 20.6685 20.1034 20.6685 18.912C20.6685 17.7207 19.7027 16.7549 18.5114 16.7549C17.32 16.7549 16.3542 17.7207 16.3542 18.912C16.3542 20.1034 17.32 21.0692 18.5114 21.0692Z" fill="#EA5C29"/>
<path d="M6.36857 21.0692C7.55993 21.0692 8.52571 20.1034 8.52571 18.912C8.52571 17.7207 7.55993 16.7549 6.36857 16.7549C5.17721 16.7549 4.21143 17.7207 4.21143 18.912C4.21143 20.1034 5.17721 21.0692 6.36857 21.0692Z" fill="#EA5C29"/>
</svg>
