<svg width="22" height="19" viewBox="0 0 22 19" fill="none" xmlns="http://www.w3.org/2000/svg">
<path d="M21.8064 16.659L12.1543 0.651877C12.0344 0.452975 11.8651 0.288441 11.6628 0.174228C11.4606 0.0600159 11.2322 0 11 0C10.7677 0 10.5394 0.0600159 10.3371 0.174228C10.1349 0.288441 9.96555 0.452975 9.84561 0.651877L0.193621 16.659C0.0703159 16.8635 0.00354421 17.097 0.000137242 17.3358C-0.00326972 17.5746 0.0568104 17.8099 0.174231 18.0179C0.291652 18.2258 0.462198 18.3988 0.668423 18.5192C0.874648 18.6395 1.10915 18.703 1.34793 18.703H20.652C20.8908 18.7029 21.1253 18.6395 21.3315 18.5191C21.5377 18.3987 21.7083 18.2258 21.8257 18.0178C21.9431 17.8099 22.0032 17.5746 21.9998 17.3358C21.9964 17.097 21.9297 16.8635 21.8064 16.659ZM11.0072 5.53699C11.5615 5.53699 12.0306 5.84972 12.0306 6.40402C12.0306 8.0954 11.8316 10.526 11.8316 12.2173C11.8316 12.658 11.3483 12.8427 11.0072 12.8427C10.5524 12.8427 10.1686 12.6579 10.1686 12.2173C10.1686 10.526 9.96966 8.0954 9.96966 6.40402C9.96966 5.84972 10.4244 5.53699 11.0072 5.53699ZM11.0214 16.0124C10.396 16.0124 9.92694 15.5007 9.92694 14.918C9.92694 14.321 10.396 13.8236 11.0214 13.8236C11.6041 13.8236 12.1016 14.321 12.1016 14.918C12.1016 15.5007 11.6041 16.0124 11.0214 16.0124Z" fill="white"/>
</svg>
