<svg width="15" height="15" viewBox="0 0 15 15" fill="none" xmlns="http://www.w3.org/2000/svg">
<g clip-path="url(#clip0_1_2107)">
<path d="M7.16596 14.8716L2.16623 10.3719C2.06024 10.2759 2.00024 10.1419 2.00024 9.99988L2.00024 7.00005C2.00035 6.90347 2.02833 6.80897 2.08084 6.72791C2.13334 6.64684 2.20813 6.58266 2.29623 6.54307C2.47722 6.46308 2.68821 6.49607 2.8342 6.62807L7.49995 10.8268L12.1647 6.62807C12.3117 6.49607 12.5227 6.46208 12.7027 6.54307C12.8837 6.62407 12.9996 6.80306 12.9996 7.00005L12.9996 9.99988C12.9996 10.1419 12.9387 10.2759 12.8347 10.3719L7.83493 14.8716C7.64494 15.0426 7.35495 15.0426 7.16596 14.8716Z" fill="#2C2A2A" fill-opacity="0.05"/>
<path d="M7.16596 8.37211L2.16623 3.87235C2.06024 3.77636 2.00024 3.64236 2.00024 3.50037L2.00024 0.500535C2.00035 0.403954 2.02833 0.309457 2.08084 0.228394C2.13334 0.147331 2.20813 0.0831502 2.29623 0.0435599C2.47722 -0.0364357 2.68821 -0.00343751 2.8342 0.128555L7.49995 4.32733L12.1647 0.128556C12.3117 -0.00343709 12.5227 -0.0374352 12.7027 0.0435604C12.8837 0.124556 12.9996 0.303546 12.9996 0.500536L12.9996 3.50037C12.9996 3.64237 12.9387 3.77636 12.8347 3.87235L7.83493 8.37211C7.64494 8.5431 7.35495 8.5431 7.16596 8.37211Z" fill="#2C2A2A" fill-opacity="0.05"/>
</g>
<defs>
<clipPath id="clip0_1_2107">
<rect width="15" height="15" fill="white" transform="matrix(-4.37114e-08 1 1 4.37114e-08 0 0)"/>
</clipPath>
</defs>
</svg>
