<svg width="380" height="155" viewBox="0 0 380 155" fill="none" xmlns="http://www.w3.org/2000/svg">
<mask id="mask0_1_682" style="mask-type:alpha" maskUnits="userSpaceOnUse" x="0" y="0" width="380" height="155">
<rect width="380" height="155" rx="20" fill="#EA5C29"/>
</mask>
<g mask="url(#mask0_1_682)">
<g opacity="0.05">
<mask id="mask1_1_682" style="mask-type:luminance" maskUnits="userSpaceOnUse" x="222" y="26" width="218" height="218">
<path d="M439.81 70.406L266.406 26L222 199.404L395.404 243.81L439.81 70.406Z" fill="white"/>
</mask>
<g mask="url(#mask1_1_682)">
<path d="M304.132 219.222C302.576 219.416 301.301 218.002 301.65 216.473L304.946 202.075C305.076 201.524 304.865 201.187 304.311 201.066C291.592 198.179 282.001 195.666 275.538 193.528C259.367 188.186 248.688 176.013 246.668 159.189C246.045 154.023 246.045 148.766 247.341 143.728L261.357 89.2348C262.426 85.0769 264.282 81.1644 266.788 77.6781C267.141 77.1874 267.491 76.6982 267.84 76.2106C275.911 64.8966 287.86 58.8254 301.848 59.1586C313.677 59.4469 326.708 63.9389 338.503 67.0055C339.168 67.1758 339.586 66.9237 339.759 66.2493C340.814 62.131 341.073 56.608 346.019 55.3953C349.801 54.4546 353.493 53.5266 357.094 52.6114C357.344 52.5479 357.605 52.5507 357.853 52.6195C358.101 52.6882 358.328 52.8205 358.51 53.0036C358.692 53.1867 358.825 53.4143 358.894 53.6643C358.964 53.9144 358.969 54.1783 358.907 54.4307L354.942 70.276C354.914 70.3873 354.907 70.5031 354.924 70.6168C354.941 70.7305 354.98 70.8396 355.039 70.938C355.099 71.0363 355.177 71.1219 355.27 71.1896C355.363 71.2573 355.468 71.3059 355.58 71.3325C363.107 73.2086 370.646 75.1137 378.199 77.0478C387.057 79.3162 396.212 83.3699 402.501 90.2003C412.969 101.555 416.053 115.228 411.753 131.218C407.916 145.48 404.412 159.242 401.242 172.503C398.751 182.952 396.11 190.339 393.318 194.665C383.16 210.402 366.156 216.134 347.72 212.182C338.999 210.319 330.155 208.136 321.188 205.634C320.516 205.452 320.109 205.697 319.968 206.369C318.752 211.116 317.735 217.111 315.086 217.643C312.603 218.141 307.805 218.764 304.132 219.222ZM337.164 165.733C341.244 166.84 345.558 167.95 350.108 169.064C354.113 170.058 356.677 168.667 357.798 164.889C359.366 159.609 362.839 152.06 354.787 149.952C338.726 145.767 323.389 141.839 308.777 138.169C308.459 138.09 308.16 137.948 307.897 137.753C307.634 137.557 307.413 137.311 307.246 137.029C307.079 136.747 306.97 136.435 306.924 136.11C306.879 135.785 306.898 135.455 306.982 135.138L309.896 124.059C310.023 123.577 310.333 123.163 310.758 122.907C311.183 122.65 311.691 122.571 312.172 122.686L323.488 125.338C323.813 125.413 324.156 125.355 324.44 125.177C324.725 124.999 324.93 124.716 325.009 124.388L328.678 109.221C328.851 108.546 328.6 108.123 327.925 107.95C321.69 106.364 315.652 104.91 309.81 103.588C304.311 102.334 302.886 108.621 302.064 112.43C301.995 112.756 301.861 113.066 301.669 113.34C301.477 113.613 301.231 113.845 300.947 114.021C300.663 114.197 300.347 114.314 300.017 114.365C299.686 114.415 299.349 114.398 299.026 114.315L286.71 111.177C286.057 111.011 285.491 110.601 285.128 110.03C284.765 109.46 284.632 108.771 284.756 108.105C287.798 91.7767 292.937 81.9907 311.58 87.1189C318.693 89.0843 325.606 90.8701 332.319 92.4762C332.755 92.5776 333.033 92.4128 333.154 91.9817L335.345 83.9662C335.525 83.3039 335.279 82.9021 334.607 82.7608C328.626 81.4652 322.361 79.8918 315.814 78.0406C308.31 75.9138 302.179 75.1443 297.419 75.7321C284.668 77.3017 278.461 87.1069 275.474 98.8913C271.813 113.352 267.916 128.686 263.786 144.895C259.201 162.86 267.975 175.316 285.564 179.451C293.173 181.245 300.805 183.43 308.214 185.282C308.882 185.442 309.304 185.196 309.481 184.544L311.562 176.839C311.722 176.254 311.509 175.886 310.921 175.735C303.792 173.951 296.816 172.21 289.992 170.514C278.276 167.622 270.461 162.602 272.988 149.607C274.104 143.847 275.228 139.659 276.36 137.043C276.998 135.595 278.328 134.57 280.35 133.969C284.757 132.675 289.09 131.526 293.35 130.523C293.647 130.453 293.957 130.46 294.251 130.542C294.545 130.625 294.813 130.78 295.03 130.994C295.248 131.208 295.407 131.474 295.494 131.766C295.581 132.059 295.592 132.369 295.527 132.667C294.476 137.571 293.263 142.511 291.886 147.486C290.12 153.902 295.434 155.339 300.507 156.454C305.609 157.576 310.285 158.778 314.534 160.061C314.688 160.109 314.85 160.125 315.011 160.108C315.171 160.091 315.326 160.041 315.466 159.961C315.606 159.881 315.729 159.774 315.825 159.645C315.922 159.517 315.992 159.369 316.03 159.213L319.063 146.886C319.096 146.751 319.154 146.624 319.236 146.513C319.318 146.401 319.421 146.307 319.54 146.236C319.658 146.164 319.79 146.117 319.927 146.097C320.064 146.077 320.204 146.084 320.338 146.119L333.368 149.41C333.694 149.493 333.974 149.702 334.145 149.992C334.316 150.281 334.366 150.627 334.282 150.952L324.468 188.736C324.442 188.836 324.437 188.94 324.452 189.042C324.467 189.144 324.502 189.242 324.556 189.33C324.609 189.418 324.679 189.495 324.763 189.555C324.846 189.616 324.941 189.66 325.041 189.683C331.1 191.04 337.046 192.552 342.88 194.221C350.353 196.35 356.422 197.242 361.088 196.897C376.207 195.764 381.832 184.502 385.313 170.426C388.688 156.765 392.193 142.86 395.826 128.711C401.022 108.422 391.506 97.1163 373.149 92.8001C366.012 91.1264 358.718 89.2432 351.268 87.1505C351.187 87.1278 351.103 87.1212 351.02 87.1308C350.937 87.1404 350.858 87.1662 350.786 87.2065C350.714 87.2469 350.651 87.301 350.601 87.3659C350.551 87.4307 350.515 87.5048 350.494 87.5838L339.908 128.803C339.865 128.971 339.888 129.149 339.973 129.299C340.058 129.45 340.197 129.562 340.363 129.613C346.594 131.455 352.914 133.053 359.322 134.406C361.415 134.85 363.014 134.259 364.119 132.632C365.98 129.875 369.659 119.654 364.064 117.574C360.006 116.063 355.715 114.979 351.192 114.324C349.828 114.118 349.317 113.346 349.66 112.007L353.058 98.6801C353.176 98.2177 353.474 98.0373 353.951 98.1389C361.331 99.7826 368.081 101.547 374.199 103.432C390.613 108.482 386.352 122.235 382.99 134.401C381.345 140.344 377.804 143.61 372.366 144.199C370.414 144.407 370.251 145.063 371.878 146.167C376.873 149.551 378.655 154.457 377.224 160.887C376.229 165.374 375.085 169.819 373.794 174.221C369.569 188.552 359.88 188.627 347.444 185.18C342.466 183.813 337.7 182.644 333.144 181.673C332.984 181.638 332.832 181.571 332.699 181.477C332.565 181.383 332.452 181.263 332.367 181.124C332.281 180.986 332.225 180.831 332.202 180.671C332.178 180.511 332.188 180.347 332.23 180.191L335.792 166.522C335.977 165.799 336.435 165.536 337.164 165.733Z" fill="white"/>
</g>
</g>
</g>
</svg>
