<svg width="26" height="15" viewBox="0 0 26 15" fill="none" xmlns="http://www.w3.org/2000/svg">
<path fill-rule="evenodd" clip-rule="evenodd" d="M18.0693 0.149307C20.2668 0.659208 21.1075 1.94421 22.1614 3.71287H18.0693V0.149307ZM5.22663 3.86139C5.65693 3.86139 5.96921 4.06906 5.96921 4.55446C5.96921 4.96386 5.63797 5.29589 5.22876 5.29703H0.742574C0.332426 5.29703 0 5.62965 0 6.0396C0 6.44975 0.332426 6.78218 0.742574 6.78218H7.42574C7.83975 6.78218 8.17124 7.11436 8.17124 7.52475C8.17124 7.9349 7.83881 8.26733 7.42866 8.26733H0.742574C0.332426 8.26733 0 8.59975 0 9.0099C0 9.42005 0.332426 9.75248 0.742574 9.75248H2.37624V11.9802C2.37624 12.3903 2.70866 12.7228 3.11881 12.7228H4.61149C4.87757 14.0335 6.03574 15 7.40099 15C8.76624 15 9.92441 14.0335 10.1905 12.7228H17.7303C17.9964 14.0335 19.1546 15 20.5198 15C21.885 15 23.0432 14.0335 23.3093 12.7228H24.604C25.0141 12.7228 25.3465 12.3903 25.3465 11.9802V7.52475C25.3465 5.34594 23.0484 5.20129 23.0463 5.19802H17.3267C16.9166 5.19802 16.5842 4.86559 16.5842 4.45545V0H3.11881C2.70866 0 2.37624 0.332426 2.37624 0.742574V2.37624H1.48515C1.075 2.37624 0.742574 2.70866 0.742574 3.11881C0.742574 3.52896 1.075 3.86139 1.48515 3.86139H5.22663ZM21.4824 11.1908C22.0141 11.7224 22.0141 12.5847 21.4824 13.1163C20.6273 13.9714 19.1584 13.3631 19.1584 12.1535C19.1584 10.9441 20.6273 10.3357 21.4824 11.1908ZM8.36361 11.1908C8.89525 11.7224 8.89525 12.5847 8.36361 13.1163C7.50852 13.9714 6.0396 13.3631 6.0396 12.1535C6.0396 10.9441 7.50852 10.3357 8.36361 11.1908Z" fill="white"/>
</svg>
