<svg width="500" height="193" viewBox="0 0 500 193" fill="none" xmlns="http://www.w3.org/2000/svg">
<mask id="mask0_1_488" style="mask-type:alpha" maskUnits="userSpaceOnUse" x="0" y="0" width="500" height="193">
<rect width="500" height="193" rx="25" fill="#EA5C29"/>
</mask>
<g mask="url(#mask0_1_488)">
<g opacity="0.05">
<mask id="mask1_1_488" style="mask-type:luminance" maskUnits="userSpaceOnUse" x="171" y="-110" width="490" height="490">
<path d="M660.638 5.93347L309.255 -109.604L171.846 263.651L523.229 379.189L660.638 5.93347Z" fill="white"/>
</mask>
<g mask="url(#mask1_1_488)">
<path d="M338.813 315.191C335.517 315.445 333.218 312.232 334.339 308.945L344.899 277.986C345.313 276.801 344.958 276.046 343.833 275.723C318.033 268.071 298.663 261.573 285.723 256.226C253.349 242.865 234.181 215.236 234.27 178.427C234.292 167.126 235.637 155.692 239.63 144.873L282.821 27.8656C286.117 18.9376 290.991 10.6285 297.111 3.31592C297.973 2.28686 298.83 1.26063 299.683 0.237706C319.419 -23.4994 345.904 -35.4158 375.008 -33.183C399.616 -31.2806 425.658 -20.106 449.485 -12.1646C450.828 -11.7227 451.766 -12.2258 452.299 -13.6738C455.554 -22.5173 457.508 -34.5016 468.138 -36.6059C476.271 -38.2441 484.212 -39.8644 491.961 -41.4667C492.498 -41.5778 493.043 -41.5435 493.542 -41.3673C494.042 -41.191 494.481 -40.8788 494.815 -40.4609C495.148 -40.0431 495.366 -39.5339 495.448 -38.9825C495.529 -38.4312 495.471 -37.8566 495.279 -37.3144L482.95 -3.27917C482.862 -3.04019 482.819 -2.78891 482.826 -2.53983C482.831 -2.2909 482.885 -2.04922 482.984 -1.82897C483.083 -1.60862 483.224 -1.41411 483.401 -1.25684C483.577 -1.09951 483.784 -0.982524 484.011 -0.912671C499.236 3.97915 514.48 8.9355 529.745 13.9564C547.648 19.845 565.715 29.6486 577.089 45.1822C596.026 71.0069 598.962 101.077 585.897 135.392C574.241 165.996 563.409 195.549 553.4 224.051C545.529 246.508 538.127 262.289 531.196 271.396C505.972 304.529 469.024 315.161 431.567 304.58C413.847 299.586 395.951 293.886 377.879 287.478C376.524 287.009 375.613 287.497 375.146 288.944C371.395 299.138 367.739 312.068 362.075 312.938C356.767 313.754 346.596 314.592 338.813 315.191ZM421.427 202.418C429.656 205.264 438.375 208.144 447.584 211.057C455.687 213.652 461.392 210.902 464.699 202.807C469.321 191.491 478.5 175.447 462.237 169.994C429.794 159.161 398.798 148.965 369.247 139.408C368.604 139.201 368.016 138.86 367.518 138.406C367.019 137.952 366.621 137.393 366.345 136.762C366.068 136.131 365.92 135.44 365.908 134.729C365.896 134.018 366.022 133.302 366.277 132.621L375.193 108.839C375.582 107.804 376.333 106.938 377.287 106.426C378.24 105.914 379.319 105.796 380.294 106.099L403.227 113.085C403.887 113.284 404.615 113.196 405.255 112.84C405.895 112.483 406.394 111.888 406.645 111.183L418.181 78.5916C418.714 77.1435 418.299 76.1953 416.936 75.7471C404.331 71.6242 392.103 67.811 380.252 64.3074C369.098 60.9865 364.516 74.5066 361.827 82.7014C361.599 83.4049 361.239 84.0638 360.769 84.6379C360.298 85.2122 359.727 85.69 359.089 86.0426C358.452 86.3947 357.761 86.615 357.059 86.6892C356.357 86.7635 355.658 86.6905 355.004 86.4749L330.109 78.3214C328.788 77.8901 327.713 76.9377 327.102 75.6577C326.49 74.3777 326.389 72.866 326.818 71.4296C337.343 36.2446 350.571 15.5149 388.159 28.6783C402.499 33.7198 416.467 38.349 430.063 42.566C430.947 42.8335 431.57 42.505 431.932 41.5805L438.556 24.3834C439.1 22.9624 438.69 22.062 437.323 21.6822C425.174 18.2194 412.505 14.1219 399.317 9.38983C384.204 3.95522 371.607 1.62058 361.525 2.38594C334.516 4.42505 319.057 25.0815 309.809 50.39C298.467 81.4454 286.413 114.377 273.647 149.184C259.482 187.764 274.604 215.801 310.246 226.689C325.664 231.413 341.03 236.988 356.017 241.814C357.368 242.235 358.313 241.745 358.85 240.345L365.163 223.811C365.647 222.556 365.295 221.733 364.108 221.342C349.689 216.692 335.577 212.155 321.774 207.731C298.067 200.177 283.044 188.418 291.643 160.426C295.446 148.017 298.862 139.03 301.893 133.464C303.594 130.383 306.632 128.297 311.005 127.208C320.532 124.868 329.868 122.837 339.014 121.115C339.652 120.995 340.297 121.043 340.889 121.253C341.481 121.464 342.001 121.831 342.399 122.32C342.798 122.809 343.063 123.404 343.169 124.05C343.276 124.696 343.22 125.37 343.008 126.011C339.56 136.565 335.763 147.179 331.618 157.851C326.291 171.613 337.011 175.313 347.311 178.284C357.67 181.274 367.119 184.393 375.658 187.643C375.967 187.763 376.301 187.815 376.64 187.795C376.979 187.774 377.315 187.682 377.628 187.525C377.941 187.366 378.224 187.146 378.459 186.876C378.694 186.607 378.877 186.294 378.996 185.957L388.48 159.474C388.582 159.185 388.737 158.916 388.937 158.682C389.136 158.448 389.376 158.255 389.641 158.112C389.907 157.969 390.194 157.881 390.484 157.852C390.775 157.824 391.065 157.855 391.335 157.944L417.684 166.506C418.342 166.722 418.871 167.208 419.155 167.856C419.438 168.503 419.453 169.26 419.196 169.96L389.048 251.078C388.97 251.293 388.932 251.518 388.937 251.742C388.942 251.966 388.991 252.182 389.079 252.38C389.168 252.578 389.296 252.752 389.454 252.893C389.612 253.034 389.799 253.139 390.002 253.201C402.297 256.804 414.317 260.735 426.065 264.993C441.111 270.429 453.547 273.024 463.373 272.777C495.209 271.943 509.829 248.054 520.695 217.816C531.233 188.468 542.104 158.602 553.307 128.22C569.34 84.6546 552.378 59.0388 515.176 47.6722C500.713 43.2627 485.975 38.3805 470.964 33.0257C470.802 32.9676 470.629 32.9442 470.454 32.9562C470.278 32.9681 470.105 33.0156 469.944 33.0955C469.784 33.1756 469.639 33.2865 469.518 33.4223C469.397 33.5579 469.303 33.7151 469.24 33.8848L436.602 122.393C436.47 122.753 436.473 123.142 436.611 123.479C436.749 123.816 437.012 124.076 437.344 124.203C449.876 128.881 462.654 133.038 475.679 136.673C479.933 137.863 483.421 136.749 486.141 133.331C490.73 127.535 501.024 105.701 489.88 100.575C481.799 96.8501 473.124 94.0312 463.853 92.1182C461.059 91.524 460.191 89.7892 461.25 86.9138L471.749 58.2948C472.114 57.3018 472.782 56.9416 473.751 57.214C488.731 61.5847 502.363 66.1496 514.646 70.9088C547.605 83.6626 535.195 113.114 525.067 139.212C520.113 151.96 511.888 158.682 500.391 159.376C496.264 159.619 495.756 161.029 498.868 163.606C508.424 171.503 510.887 182.367 506.257 196.196C503.032 205.849 499.508 215.393 495.687 224.827C483.205 255.541 462.969 254.66 437.9 245.823C427.863 242.313 418.217 239.256 408.96 236.652C408.635 236.559 408.336 236.398 408.081 236.178C407.826 235.959 407.621 235.685 407.478 235.375C407.336 235.064 407.258 234.723 407.25 234.372C407.242 234.02 407.303 233.666 407.432 233.331L418.363 203.985C418.934 202.433 419.955 201.911 421.427 202.418Z" fill="white"/>
</g>
</g>
</g>
</svg>
