<svg width="411" height="151" viewBox="0 0 411 151" fill="none" xmlns="http://www.w3.org/2000/svg">
<mask id="mask0_1_2" style="mask-type:alpha" maskUnits="userSpaceOnUse" x="0" y="0" width="411" height="151">
<rect width="411" height="151" rx="15" fill="#EA5C29"/>
</mask>
<g mask="url(#mask0_1_2)">
<g opacity="0.05">
<mask id="mask1_1_2" style="mask-type:luminance" maskUnits="userSpaceOnUse" x="104" y="-131" width="490" height="490">
<path d="M593.411 -23.4026L253.74 -130.185L104.618 251.825L444.29 358.607L593.411 -23.4026Z" fill="white"/>
</mask>
<g mask="url(#mask1_1_2)">
<path d="M266.409 298.716C263.179 299.068 261.058 295.887 262.28 292.533L273.795 260.935C274.246 259.725 273.928 258.973 272.842 258.678C247.936 251.693 229.267 245.686 216.834 240.657C185.728 228.09 168.074 200.721 169.588 163.514C170.047 152.091 171.804 140.495 176.124 129.444L222.846 9.92761C226.411 0.808165 231.494 -7.73157 237.756 -15.3001C238.638 -16.3652 239.515 -17.4273 240.387 -18.486C260.586 -43.0503 286.919 -55.8626 315.261 -54.4495C339.225 -53.2402 364.231 -42.7006 387.197 -35.3647C388.492 -34.957 389.428 -35.4927 390.005 -36.9718C393.527 -46.0046 395.901 -58.1743 406.365 -60.6093C414.373 -62.501 422.193 -64.3689 429.824 -66.2131C430.353 -66.341 430.884 -66.322 431.365 -66.1585C431.847 -65.9948 432.263 -65.6919 432.573 -65.2793C432.883 -64.8666 433.076 -64.3582 433.134 -63.8033C433.192 -63.2484 433.113 -62.6659 432.904 -62.1123L419.542 -27.3541C419.447 -27.11 419.396 -26.8548 419.392 -26.6032C419.388 -26.3518 419.432 -26.1091 419.519 -25.8893C419.607 -25.6695 419.738 -25.477 419.904 -25.3231C420.071 -25.1692 420.269 -25.057 420.487 -24.9929C435.169 -20.49 449.869 -15.9224 464.585 -11.2902C481.845 -5.85735 499.113 3.52775 509.622 18.8984C527.119 44.4515 528.822 74.7592 514.731 109.821C502.16 141.092 490.434 171.277 479.552 200.375C470.993 223.301 463.152 239.467 456.029 248.873C430.106 283.093 393.603 294.91 357.423 285.302C340.308 280.768 323.048 275.525 305.643 269.572C304.337 269.137 303.429 269.658 302.916 271.134C298.857 281.546 294.785 294.721 289.219 295.765C284.002 296.743 274.034 297.885 266.409 298.716ZM351.477 182.337C359.405 184.975 367.81 187.632 376.693 190.309C384.507 192.698 390.187 189.753 393.73 181.474C398.684 169.903 408.271 153.421 392.597 148.381C361.326 138.372 331.443 128.965 302.947 120.162C302.327 119.972 301.766 119.645 301.297 119.2C300.828 118.755 300.46 118.202 300.215 117.572C299.969 116.942 299.851 116.248 299.867 115.53C299.883 114.812 300.033 114.084 300.309 113.389L309.94 89.0922C310.36 88.0351 311.127 87.138 312.078 86.5926C313.029 86.0476 314.088 85.8977 315.028 86.1749L337.16 92.5718C337.796 92.7538 338.512 92.643 339.151 92.2646C339.789 91.886 340.3 91.2699 340.572 90.55L353.103 57.2739C353.68 55.7948 353.311 54.8485 351.997 54.4349C339.844 50.6333 328.047 47.1336 316.607 43.9359C305.841 40.9028 300.84 54.701 297.897 63.0618C297.647 63.7794 297.269 64.4559 296.787 65.0498C296.306 65.6438 295.729 66.1433 295.093 66.5182C294.456 66.8926 293.773 67.1352 293.084 67.2307C292.396 67.3261 291.715 67.2726 291.085 67.0736L267.084 59.5543C265.81 59.1566 264.796 58.2252 264.249 56.9492C263.701 55.6732 263.661 54.1481 264.135 52.6839C275.78 16.8158 289.504 -4.5201 325.71 7.69491C339.523 12.3748 352.988 16.6488 366.106 20.5168C366.959 20.7616 367.58 20.4115 367.97 19.4666L375.106 1.89269C375.693 0.440673 375.326 -0.457476 374.007 -0.801771C362.273 -3.9495 350.057 -7.72366 337.357 -12.1242C322.806 -17.1791 310.591 -19.1735 300.713 -18.1077C274.252 -15.2636 258.35 6.06303 248.336 31.9115C236.054 63.6292 223.004 97.2638 209.185 132.815C193.854 172.22 207.539 200.12 241.933 210.092C256.81 214.419 271.604 219.609 286.057 224.052C287.361 224.438 288.302 223.916 288.881 222.485L295.689 205.591C296.21 204.308 295.898 203.486 294.753 203.126C280.848 198.844 267.24 194.667 253.928 190.596C231.063 183.647 216.844 172.198 226.328 143.656C230.523 131.004 234.209 121.821 237.385 116.107C239.166 112.943 242.214 110.748 246.528 109.52C255.925 106.879 265.123 104.555 274.124 102.549C274.752 102.409 275.38 102.439 275.95 102.635C276.52 102.831 277.014 103.187 277.384 103.669C277.755 104.152 277.991 104.746 278.069 105.395C278.149 106.045 278.068 106.728 277.835 107.383C274.059 118.15 269.939 128.987 265.476 139.894C259.74 153.959 270.067 157.388 280.014 160.092C290.017 162.813 299.126 165.692 307.342 168.729C307.639 168.842 307.963 168.885 308.295 168.854C308.627 168.824 308.958 168.721 309.27 168.553C309.582 168.384 309.867 168.153 310.107 167.874C310.347 167.595 310.538 167.273 310.667 166.929L320.957 139.887C321.068 139.591 321.23 139.315 321.434 139.073C321.638 138.83 321.879 138.628 322.145 138.476C322.409 138.324 322.693 138.227 322.978 138.189C323.263 138.152 323.545 138.174 323.806 138.257L349.212 146.147C349.846 146.347 350.345 146.822 350.596 147.469C350.848 148.115 350.833 148.88 350.555 149.594L317.964 232.458C317.878 232.677 317.832 232.906 317.829 233.132C317.825 233.358 317.865 233.576 317.943 233.772C318.023 233.97 318.14 234.142 318.29 234.28C318.439 234.418 318.617 234.519 318.813 234.576C330.683 237.861 342.273 241.486 353.583 245.449C368.07 250.507 380.117 252.769 389.725 252.235C420.855 250.469 436.061 225.899 447.847 195.021C459.278 165.052 471.054 134.551 483.174 103.518C500.523 59.0195 484.947 33.6203 449.048 23.2102C435.09 19.1726 420.884 14.6653 406.428 9.68818C406.272 9.63418 406.104 9.61563 405.932 9.63282C405.76 9.64988 405.59 9.70294 405.429 9.78836C405.27 9.87393 405.124 9.99027 405 10.131C404.876 10.2716 404.779 10.4332 404.711 10.6065L369.401 101.012C369.257 101.379 369.245 101.773 369.367 102.11C369.489 102.446 369.735 102.7 370.055 102.819C382.115 107.185 394.436 111.016 407.018 114.312C411.128 115.392 414.578 114.165 417.367 110.631C422.074 104.64 432.976 82.2728 422.288 77.4143C414.539 73.884 406.174 71.2864 397.192 69.6216C394.486 69.1021 393.706 67.3738 394.851 64.4368L406.216 35.206C406.611 34.1918 407.277 33.8083 408.213 34.0555C422.677 38.0389 435.816 42.2576 447.63 46.7117C479.33 58.647 466.067 88.7747 455.163 115.446C449.83 128.475 441.535 135.508 430.278 136.543C426.237 136.908 425.686 138.347 428.626 140.862C437.655 148.567 439.64 159.476 434.581 173.588C431.057 183.438 427.246 193.186 423.148 202.832C409.765 234.239 390.031 233.935 365.886 225.73C356.218 222.473 346.914 219.663 337.972 217.299C337.659 217.215 337.372 217.061 337.132 216.846C336.892 216.632 336.702 216.361 336.575 216.051C336.447 215.742 336.384 215.399 336.39 215.045C336.396 214.689 336.47 214.33 336.608 213.987L348.423 184.009C349.041 182.424 350.059 181.867 351.477 182.337Z" fill="white"/>
</g>
</g>
</g>
</svg>
