<svg width="25" height="25" viewBox="0 0 25 25" fill="none" xmlns="http://www.w3.org/2000/svg">
<g clip-path="url(#clip0_1_123)">
<mask id="mask0_1_123" style="mask-type:luminance" maskUnits="userSpaceOnUse" x="0" y="0" width="25" height="25">
<path d="M25 0H0V25H25V0Z" fill="white"/>
</mask>
<g mask="url(#mask0_1_123)">
<path d="M11.7985 24.8356C11.5947 24.9157 11.3732 24.7686 11.3675 24.5497L11.3145 22.4875C11.3131 22.4083 11.2729 22.3701 11.1937 22.3729C9.37286 22.4229 7.98814 22.4153 7.03953 22.35C4.66661 22.1875 2.79994 20.9104 1.94369 18.7042C1.68046 18.0269 1.49826 17.3156 1.49903 16.589L1.50732 8.73056C1.50795 8.13094 1.62352 7.53728 1.84175 6.97876C1.87246 6.90016 1.90297 6.82181 1.93328 6.74375C2.63328 4.93333 4.03953 3.69792 5.9437 3.25833C7.55411 2.8875 9.47286 3.04375 11.1749 3.05C11.2708 3.05 11.3187 3.00139 11.3187 2.90417C11.3187 2.31042 11.1624 1.55417 11.7895 1.21875C12.2687 0.960421 12.7361 0.706949 13.1916 0.458338C13.2231 0.441116 13.2586 0.432438 13.2945 0.433145C13.3305 0.433849 13.3657 0.443916 13.3967 0.462366C13.4278 0.480813 13.4535 0.507019 13.4716 0.538436C13.4897 0.569853 13.4995 0.605415 13.4999 0.641671L13.5124 2.92292C13.5124 2.93897 13.5156 2.95485 13.5219 2.96965C13.528 2.98445 13.5371 2.99786 13.5486 3.00911C13.56 3.02035 13.5736 3.02921 13.5885 3.03516C13.6034 3.04111 13.6193 3.04403 13.6354 3.04375C14.7187 3.03681 15.8048 3.03334 16.8937 3.03334C18.1708 3.03334 19.5499 3.26458 20.6374 3.97083C22.4472 5.14445 23.3381 6.8875 23.3104 9.2C23.2854 11.2625 23.2881 13.2458 23.3187 15.15C23.3437 16.65 23.2423 17.741 23.0145 18.4229C22.1854 20.9042 20.0833 22.2688 17.452 22.3729C16.2076 22.4229 14.9354 22.434 13.6354 22.4063C13.5381 22.4049 13.4916 22.4521 13.4958 22.5479C13.4958 23.2323 13.5659 24.0787 13.226 24.2424C12.9073 24.3959 12.2797 24.6464 11.7985 24.8356ZM14.4145 16.4542C15.0048 16.4625 15.627 16.4632 16.2812 16.4563C16.8576 16.4521 17.1562 16.175 17.177 15.625C17.2062 14.8563 17.4145 13.7146 16.252 13.7083C13.934 13.6986 11.7229 13.6986 9.6187 13.7083C9.57292 13.7086 9.52757 13.6998 9.48524 13.6824C9.44287 13.665 9.40443 13.6394 9.37207 13.607C9.33969 13.5747 9.31409 13.5362 9.29669 13.4939C9.2793 13.4515 9.27049 13.4062 9.27078 13.3604L9.2812 11.7604C9.28173 11.6908 9.30926 11.6241 9.35793 11.5747C9.40661 11.5252 9.47251 11.4969 9.54161 11.4958L11.1645 11.4625C11.2112 11.4614 11.2554 11.4418 11.2878 11.4078C11.3202 11.3739 11.338 11.3284 11.3374 11.2813L11.3083 9.10208C11.3083 9.00486 11.2597 8.95625 11.1624 8.95625C10.2638 8.95764 9.39647 8.97014 8.56036 8.99375C7.77286 9.01458 7.79786 9.91458 7.8187 10.4583C7.82065 10.505 7.81317 10.5515 7.79666 10.5952C7.78019 10.6388 7.75503 10.6787 7.7227 10.7124C7.69038 10.746 7.65159 10.7728 7.60866 10.7911C7.56573 10.8094 7.51952 10.8188 7.47286 10.8188L5.69786 10.8208C5.6037 10.821 5.51298 10.7852 5.4441 10.7206C5.37523 10.6559 5.33337 10.5674 5.32703 10.4729C5.17286 8.15834 5.52911 6.65625 8.22911 6.70417C9.25967 6.72361 10.2569 6.7257 11.2208 6.71042C11.2833 6.70903 11.3152 6.67708 11.3166 6.61458L11.3354 5.45417C11.3368 5.35833 11.2895 5.3125 11.1937 5.31667C10.3395 5.34861 9.43745 5.35278 8.48745 5.32917C7.39856 5.30139 6.54231 5.40972 5.91869 5.65417C4.24786 6.30833 3.74786 7.85 3.75203 9.54792C3.75758 11.6313 3.76175 13.841 3.76453 16.1771C3.76661 18.7667 5.38536 20.1479 7.90828 20.0979C8.99995 20.0771 10.1083 20.1083 11.1749 20.1021C11.2708 20.1007 11.3194 20.0528 11.3208 19.9583L11.3354 18.8438C11.3368 18.759 11.2951 18.7167 11.2104 18.7167C10.184 18.7222 9.17981 18.7285 8.19786 18.7354C6.51244 18.75 5.28119 18.3417 5.17286 16.4958C5.12425 15.6778 5.13119 15.0722 5.19369 14.6792C5.22981 14.4611 5.37425 14.2764 5.62703 14.125C6.17842 13.7972 6.72495 13.4917 7.26661 13.2083C7.30436 13.1886 7.34654 13.1787 7.38912 13.1797C7.43173 13.1807 7.4734 13.1924 7.5102 13.2138C7.54704 13.2353 7.57785 13.2657 7.59972 13.3022C7.62163 13.3388 7.63388 13.3803 7.63536 13.4229C7.66314 14.1229 7.67008 14.8333 7.6562 15.5542C7.63953 16.4833 8.40828 16.4937 9.13328 16.4688C9.86244 16.4438 10.5368 16.4444 11.1562 16.4708C11.1787 16.472 11.2011 16.4685 11.2222 16.4606C11.2433 16.4527 11.2625 16.4406 11.2788 16.425C11.295 16.4093 11.3078 16.3906 11.3165 16.3698C11.3251 16.349 11.3294 16.3267 11.3291 16.3042L11.3124 14.5313C11.3122 14.5119 11.3157 14.4927 11.323 14.4748C11.3302 14.4569 11.3409 14.4406 11.3544 14.4268C11.368 14.413 11.3842 14.4021 11.402 14.3946C11.4198 14.3872 11.439 14.3833 11.4583 14.3833L13.3354 14.3771C13.3823 14.3771 13.4274 14.3957 13.4606 14.4289C13.4938 14.4622 13.5124 14.5072 13.5124 14.5542L13.4937 20.0063C13.4937 20.0206 13.4966 20.0349 13.5021 20.0482C13.5077 20.0615 13.5159 20.0735 13.5261 20.0836C13.5364 20.0937 13.5486 20.1016 13.562 20.1069C13.5754 20.1123 13.5897 20.1149 13.6041 20.1146C14.4708 20.0882 15.3277 20.0868 16.1749 20.1104C17.2597 20.1396 18.1118 20.05 18.7312 19.8417C20.7374 19.1646 21.1083 17.4458 21.0916 15.4208C21.0749 13.4556 21.0673 11.4528 21.0687 9.4125C21.0687 6.4875 19.3895 5.2875 16.7562 5.33958C15.7326 5.36042 14.6805 5.35834 13.5999 5.33333C13.5883 5.33305 13.5767 5.33507 13.5658 5.33924C13.5549 5.3434 13.5451 5.34965 13.5367 5.35761C13.5284 5.36556 13.5217 5.37506 13.5172 5.38558C13.5127 5.39609 13.5104 5.40736 13.5104 5.41875L13.5062 11.3625C13.5062 11.3866 13.5155 11.4099 13.5322 11.4274C13.5488 11.4448 13.5716 11.4552 13.5958 11.4563C14.5027 11.4896 15.4131 11.4868 16.327 11.4479C16.6256 11.4354 16.8215 11.3 16.9145 11.0417C17.0708 10.6042 17.2145 9.09375 16.3854 9.00625C15.784 8.94236 15.1659 8.94445 14.5312 9.0125C14.3395 9.03195 14.2437 8.94514 14.2437 8.75208L14.2416 6.83125C14.2416 6.76458 14.2756 6.72986 14.3437 6.72708C15.3993 6.69375 16.3736 6.69861 17.2666 6.74167C19.6624 6.85625 19.5624 8.86458 19.5291 10.6271C19.5124 11.4882 19.1465 12.0528 18.4312 12.3208C18.1742 12.4167 18.1749 12.5111 18.4333 12.6042C19.2263 12.8889 19.6374 13.491 19.6666 14.4104C19.6874 15.0521 19.6868 15.6931 19.6645 16.3333C19.5895 18.4188 18.2812 18.7646 16.4791 18.7292C15.7583 18.7167 15.0729 18.7236 14.4229 18.75C14.4 18.7509 14.3772 18.7471 14.3558 18.739C14.3345 18.7308 14.3151 18.7185 14.2987 18.7027C14.2823 18.6869 14.2694 18.668 14.2606 18.6472C14.2519 18.6263 14.2475 18.6039 14.2479 18.5813L14.2562 16.6083C14.2562 16.5042 14.309 16.4528 14.4145 16.4542Z" fill="white"/>
</g>
</g>
<defs>
<clipPath id="clip0_1_123">
<rect width="25" height="25" fill="white"/>
</clipPath>
</defs>
</svg>
