<svg width="16" height="17" viewBox="0 0 16 17" fill="none" xmlns="http://www.w3.org/2000/svg">
<path fill-rule="evenodd" clip-rule="evenodd" d="M13.6464 1.61255C13.6815 1.5776 13.7053 1.53303 13.715 1.4845C13.7247 1.43597 13.7198 1.38566 13.7009 1.33993C13.6819 1.2942 13.6499 1.25512 13.6087 1.22764C13.5675 1.20016 13.5192 1.18551 13.4697 1.18555H6.72642C6.67815 1.18555 6.63091 1.19952 6.5904 1.22578C6.5499 1.25205 6.51787 1.28947 6.49817 1.33355L3.18142 8.74855C3.16441 8.78662 3.15719 8.82833 3.16042 8.86991C3.16365 8.91148 3.17722 8.95158 3.19991 8.98656C3.22259 9.02155 3.25367 9.0503 3.29031 9.07021C3.32694 9.09012 3.36798 9.10055 3.40967 9.10055H6.36617L3.83067 15.3415C3.80884 15.3953 3.80636 15.4549 3.82366 15.5102C3.84096 15.5656 3.87695 15.6132 3.92549 15.6449C3.97402 15.6767 4.03208 15.6905 4.08971 15.6842C4.14735 15.6778 4.20098 15.6516 4.24142 15.61L12.6837 6.9408C12.7179 6.90565 12.7411 6.86119 12.7503 6.81297C12.7594 6.76474 12.7542 6.71489 12.7352 6.66962C12.7162 6.62435 12.6843 6.58568 12.6435 6.55841C12.6027 6.53114 12.5548 6.5165 12.5057 6.5163L8.75417 6.49905L13.6464 1.61255Z" fill="#EA5C29"/>
</svg>
