<svg width="55" height="55" viewBox="0 0 55 55" fill="none" xmlns="http://www.w3.org/2000/svg">
<g clip-path="url(#clip0_1_710)">
<mask id="mask0_1_710" style="mask-type:luminance" maskUnits="userSpaceOnUse" x="0" y="0" width="55" height="55">
<path d="M55 0H0V55H55V0Z" fill="white"/>
</mask>
<g mask="url(#mask0_1_710)">
<path d="M25.9568 54.6381C25.5084 54.8144 25.0211 54.4907 25.0087 54.009L24.8921 49.4723C24.889 49.2981 24.8004 49.2141 24.6263 49.2202C20.6204 49.3302 17.574 49.3134 15.4871 49.1698C10.2667 48.8123 6.16 46.0027 4.27625 41.149C3.69714 39.659 3.29629 38.0942 3.29798 36.4956L3.31622 19.207C3.31762 17.8879 3.57187 16.5818 4.05197 15.3531C4.11953 15.1802 4.18666 15.0078 4.25333 14.8361C5.79333 10.8531 8.88708 8.13522 13.0763 7.16814C16.6192 6.35231 20.8404 6.69606 24.585 6.70981C24.7958 6.70981 24.9013 6.60287 24.9013 6.38898C24.9013 5.08273 24.5575 3.41898 25.9371 2.68106C26.9913 2.11273 28.0194 1.55509 29.0217 1.00815C29.091 0.970259 29.1691 0.951169 29.2481 0.952725C29.3272 0.954273 29.4047 0.976419 29.4729 1.01701C29.5412 1.05759 29.5979 1.11525 29.6377 1.18436C29.6775 1.25348 29.699 1.33172 29.7 1.41148L29.7275 6.43023C29.7275 6.46553 29.7345 6.50047 29.7482 6.53303C29.7618 6.56559 29.7818 6.59509 29.8069 6.61984C29.8322 6.64459 29.862 6.66407 29.8948 6.67716C29.9276 6.69025 29.9626 6.69667 29.9979 6.69606C32.3813 6.68079 34.7707 6.67315 37.1662 6.67315C39.9758 6.67315 43.01 7.18189 45.4025 8.73564C49.3839 11.3176 51.344 15.1523 51.2829 20.2398C51.2279 24.7773 51.234 29.1406 51.3013 33.3298C51.3563 36.6298 51.1332 39.0299 50.6321 40.5302C48.8079 45.989 44.1833 48.9911 38.3946 49.2202C35.6568 49.3302 32.8579 49.3547 29.9979 49.2936C29.784 49.2905 29.6817 49.3944 29.6908 49.6052C29.6908 51.1109 29.8452 52.973 29.0972 53.3331C28.3961 53.6707 27.0154 54.2219 25.9568 54.6381ZM31.7121 36.199C33.0107 36.2173 34.3796 36.2188 35.8188 36.2036C37.0868 36.1944 37.7438 35.5848 37.7896 34.3748C37.8538 32.6836 38.3121 30.1719 35.7546 30.1581C30.6549 30.1368 25.7904 30.1368 21.1613 30.1581C21.0606 30.1588 20.9608 30.1394 20.8676 30.1011C20.7744 30.0629 20.6899 30.0065 20.6187 29.9353C20.5474 29.8641 20.4911 29.7795 20.4528 29.6863C20.4146 29.5932 20.3952 29.4934 20.3958 29.3927L20.4188 25.8727C20.4199 25.7195 20.4805 25.5729 20.5876 25.464C20.6947 25.3553 20.8397 25.2931 20.9917 25.2906L24.5621 25.2173C24.6647 25.2149 24.7621 25.1717 24.8333 25.097C24.9045 25.0224 24.9438 24.9223 24.9425 24.8186L24.8783 20.0244C24.8783 19.8105 24.7714 19.7036 24.5575 19.7036C22.5806 19.7066 20.6724 19.7341 18.8329 19.7861C17.1004 19.8319 17.1554 21.8119 17.2013 23.0081C17.2056 23.1107 17.1891 23.2131 17.1528 23.3092C17.1165 23.4052 17.0612 23.4929 16.9901 23.567C16.919 23.6411 16.8336 23.7 16.7392 23.7402C16.6447 23.7804 16.5431 23.8011 16.4404 23.8011L12.5354 23.8056C12.3283 23.8061 12.1287 23.7272 11.9772 23.585C11.8256 23.4429 11.7335 23.2481 11.7196 23.0402C11.3804 17.9481 12.1642 14.6436 18.1042 14.749C20.3714 14.7918 22.5653 14.7963 24.6858 14.7627C24.8233 14.7597 24.8936 14.6894 24.8967 14.5519L24.9379 11.999C24.941 11.7881 24.8371 11.6873 24.6263 11.6965C22.7471 11.7668 20.7625 11.7759 18.6725 11.724C16.2769 11.6629 14.3932 11.9012 13.0213 12.439C9.34542 13.8781 8.24542 17.2698 8.25458 21.0052C8.26681 25.5886 8.27597 30.4499 8.28208 35.5894C8.28667 41.2865 11.8479 44.3252 17.3983 44.2152C19.8 44.1694 22.2383 44.2381 24.585 44.2244C24.7958 44.2213 24.9028 44.1159 24.9058 43.9081L24.9379 41.4561C24.941 41.2697 24.8493 41.1765 24.6629 41.1765C22.4049 41.1887 20.1957 41.2024 18.0354 41.2177C14.3275 41.2498 11.6188 40.3515 11.3804 36.2906C11.2735 34.4909 11.2887 33.1587 11.4262 32.294C11.5057 31.8143 11.8235 31.4079 12.3796 31.0748C13.5926 30.3537 14.795 29.6815 15.9867 29.0581C16.0697 29.0147 16.1625 28.993 16.2562 28.9952C16.3499 28.9972 16.4416 29.0231 16.5226 29.0702C16.6036 29.1174 16.6714 29.1843 16.7195 29.2647C16.7677 29.3452 16.7947 29.4365 16.7979 29.5302C16.859 31.0702 16.8743 32.6331 16.8438 34.219C16.8071 36.2631 18.4983 36.2861 20.0933 36.2311C21.6975 36.1761 23.181 36.1776 24.5438 36.2356C24.5932 36.2381 24.6426 36.2305 24.689 36.2131C24.7354 36.1958 24.7777 36.1691 24.8134 36.1347C24.849 36.1004 24.8773 36.059 24.8963 36.0133C24.9154 35.9677 24.9249 35.9185 24.9242 35.869L24.8875 31.9686C24.8869 31.9261 24.8947 31.8838 24.9106 31.8444C24.9265 31.8049 24.95 31.769 24.9799 31.7387C25.0097 31.7084 25.0453 31.6844 25.0845 31.668C25.1237 31.6516 25.1658 31.6431 25.2083 31.6431L29.3379 31.6294C29.4413 31.6294 29.5403 31.6704 29.6134 31.7435C29.6865 31.8165 29.7275 31.9156 29.7275 32.019L29.6863 44.0136C29.6863 44.0452 29.6926 44.0766 29.7048 44.1059C29.7171 44.1351 29.7351 44.1615 29.7576 44.1837C29.7803 44.2059 29.8071 44.2233 29.8365 44.2351C29.866 44.2468 29.8975 44.2525 29.9292 44.2519C31.8358 44.1938 33.7211 44.1908 35.585 44.2427C37.9714 44.3069 39.846 44.1098 41.2088 43.6515C45.6225 42.1619 46.4383 38.3806 46.4017 33.9256C46.365 29.602 46.3482 25.1959 46.3512 20.7073C46.3512 14.2723 42.6571 11.6323 36.8638 11.7469C34.6118 11.7927 32.2972 11.7881 29.92 11.7331C29.8943 11.7325 29.8688 11.737 29.8449 11.7461C29.821 11.7553 29.7992 11.769 29.7808 11.7865C29.7625 11.804 29.7479 11.8249 29.738 11.8481C29.728 11.8712 29.7229 11.896 29.7229 11.9211L29.7138 24.9973C29.7137 25.0504 29.7342 25.1016 29.7709 25.14C29.8076 25.1784 29.8577 25.2012 29.9108 25.2036C31.9061 25.2769 33.909 25.2708 35.9196 25.1852C36.5765 25.1577 37.0074 24.8598 37.2121 24.2915C37.5558 23.329 37.8721 20.0061 36.0479 19.8136C34.7249 19.673 33.3651 19.6776 31.9688 19.8273C31.5471 19.8701 31.3363 19.6791 31.3363 19.2544L31.3317 15.0286C31.3317 14.8819 31.4065 14.8055 31.5563 14.7994C33.8785 14.7261 36.0219 14.7368 37.9867 14.8315C43.2575 15.0836 43.0375 19.5019 42.9642 23.3794C42.9275 25.2738 42.1224 26.5159 40.5487 27.1056C39.9835 27.3165 39.985 27.5243 40.5533 27.729C42.2981 28.3554 43.2025 29.6799 43.2667 31.7027C43.3125 33.1144 43.311 34.5245 43.2621 35.9331C43.0971 40.5211 40.2188 41.2819 36.2542 41.204C34.6683 41.1765 33.1604 41.1918 31.7304 41.2498C31.6801 41.2517 31.6299 41.2434 31.583 41.2255C31.536 41.2077 31.4933 41.1805 31.4572 41.1458C31.4213 41.1111 31.3928 41.0695 31.3735 41.0236C31.3543 40.9776 31.3447 40.9283 31.3454 40.8786L31.3638 36.5381C31.3638 36.309 31.4799 36.1959 31.7121 36.199Z" fill="#EA5C29"/>
</g>
</g>
<defs>
<clipPath id="clip0_1_710">
<rect width="55" height="55" fill="white"/>
</clipPath>
</defs>
</svg>
