<svg width="55" height="55" viewBox="0 0 55 55" fill="none" xmlns="http://www.w3.org/2000/svg">
<g clip-path="url(#clip0_1_34)">
<mask id="mask0_1_34" style="mask-type:luminance" maskUnits="userSpaceOnUse" x="0" y="0" width="55" height="55">
<path d="M55 0H0V55H55V0Z" fill="white"/>
</mask>
<g mask="url(#mask0_1_34)">
<path d="M25.9567 54.6381C25.5083 54.8144 25.021 54.4907 25.0086 54.009L24.892 49.4723C24.8889 49.2981 24.8003 49.2141 24.6261 49.2202C20.6203 49.3302 17.5739 49.3134 15.487 49.1698C10.2665 48.8123 6.15988 46.0027 4.27613 41.149C3.69702 39.659 3.29617 38.0942 3.29786 36.4956L3.3161 19.207C3.3175 17.8879 3.57175 16.5818 4.05185 15.3531C4.11941 15.1802 4.18654 15.0078 4.25321 14.8361C5.79321 10.8531 8.88696 8.13522 13.0761 7.16814C16.619 6.35231 20.8403 6.69606 24.5849 6.70981C24.7957 6.70981 24.9011 6.60287 24.9011 6.38898C24.9011 5.08273 24.5574 3.41898 25.937 2.68106C26.9911 2.11273 28.0193 1.55509 29.0215 1.00815C29.0909 0.970259 29.169 0.951169 29.248 0.952725C29.3271 0.954273 29.4045 0.976419 29.4728 1.01701C29.5411 1.05759 29.5978 1.11525 29.6376 1.18436C29.6774 1.25348 29.6988 1.33172 29.6999 1.41148L29.7274 6.43023C29.7274 6.46553 29.7344 6.50047 29.7481 6.53303C29.7617 6.56559 29.7817 6.59509 29.8068 6.61984C29.832 6.64459 29.8619 6.66407 29.8947 6.67716C29.9274 6.69025 29.9625 6.69667 29.9978 6.69606C32.3811 6.68079 34.7706 6.67315 37.1661 6.67315C39.9757 6.67315 43.0099 7.18189 45.4024 8.73564C49.3838 11.3176 51.3439 15.1523 51.2828 20.2398C51.2278 24.7773 51.2339 29.1406 51.3011 33.3298C51.3561 36.6298 51.1331 39.0299 50.632 40.5302C48.8078 45.989 44.1832 48.9911 38.3945 49.2202C35.6567 49.3302 32.8578 49.3547 29.9978 49.2936C29.7839 49.2905 29.6815 49.3944 29.6907 49.6052C29.6907 51.1109 29.8451 52.973 29.0971 53.3331C28.396 53.6707 27.0153 54.2219 25.9567 54.6381ZM31.712 36.199C33.0106 36.2173 34.3795 36.2188 35.8186 36.2036C37.0867 36.1944 37.7436 35.5848 37.7895 34.3748C37.8536 32.6836 38.312 30.1719 35.7545 30.1581C30.6547 30.1368 25.7903 30.1368 21.1611 30.1581C21.0604 30.1588 20.9606 30.1394 20.8675 30.1011C20.7743 30.0629 20.6897 30.0065 20.6186 29.9353C20.5473 29.8641 20.491 29.7795 20.4527 29.6863C20.4145 29.5932 20.3951 29.4934 20.3957 29.3927L20.4186 25.8727C20.4198 25.7195 20.4804 25.5729 20.5874 25.464C20.6945 25.3553 20.8395 25.2931 20.9915 25.2906L24.562 25.2173C24.6645 25.2149 24.762 25.1717 24.8332 25.097C24.9044 25.0224 24.9436 24.9223 24.9424 24.8186L24.8782 20.0244C24.8782 19.8105 24.7713 19.7036 24.5574 19.7036C22.5804 19.7066 20.6722 19.7341 18.8328 19.7861C17.1003 19.8319 17.1553 21.8119 17.2011 23.0081C17.2054 23.1107 17.189 23.2131 17.1527 23.3092C17.1164 23.4052 17.0611 23.4929 16.9899 23.567C16.9188 23.6411 16.8335 23.7 16.739 23.7402C16.6446 23.7804 16.5429 23.8011 16.4403 23.8011L12.5353 23.8056C12.3281 23.8061 12.1286 23.7272 11.977 23.585C11.8255 23.4429 11.7334 23.2481 11.7195 23.0402C11.3803 17.9481 12.164 14.6436 18.104 14.749C20.3713 14.7918 22.5652 14.7963 24.6857 14.7627C24.8232 14.7597 24.8935 14.6894 24.8965 14.5519L24.9378 11.999C24.9409 11.7881 24.837 11.6873 24.6261 11.6965C22.747 11.7668 20.7624 11.7759 18.6724 11.724C16.2768 11.6629 14.3931 11.9012 13.0211 12.439C9.34529 13.8781 8.24529 17.2698 8.25446 21.0052C8.26668 25.5886 8.27585 30.4499 8.28196 35.5894C8.28654 41.2865 11.8478 44.3252 17.3982 44.2152C19.7999 44.1694 22.2382 44.2381 24.5849 44.2244C24.7957 44.2213 24.9027 44.1159 24.9057 43.9081L24.9378 41.4561C24.9409 41.2697 24.8492 41.1765 24.6628 41.1765C22.4047 41.1887 20.1956 41.2024 18.0353 41.2177C14.3274 41.2498 11.6186 40.3515 11.3803 36.2906C11.2734 34.4909 11.2886 33.1587 11.4261 32.294C11.5056 31.8143 11.8234 31.4079 12.3795 31.0748C13.5925 30.3537 14.7949 29.6815 15.9865 29.0581C16.0696 29.0147 16.1624 28.993 16.2561 28.9952C16.3498 28.9972 16.4415 29.0231 16.5224 29.0702C16.6035 29.1174 16.6713 29.1843 16.7194 29.2647C16.7676 29.3452 16.7945 29.4365 16.7978 29.5302C16.8589 31.0702 16.8742 32.6331 16.8436 34.219C16.807 36.2631 18.4982 36.2861 20.0932 36.2311C21.6974 36.1761 23.1809 36.1776 24.5436 36.2356C24.5931 36.2381 24.6425 36.2305 24.6889 36.2131C24.7353 36.1958 24.7776 36.1691 24.8133 36.1347C24.8489 36.1004 24.8772 36.059 24.8962 36.0133C24.9153 35.9677 24.9247 35.9185 24.924 35.869L24.8874 31.9686C24.8868 31.9261 24.8946 31.8838 24.9105 31.8444C24.9263 31.8049 24.9499 31.769 24.9797 31.7387C25.0095 31.7084 25.0452 31.6844 25.0844 31.668C25.1236 31.6516 25.1657 31.6431 25.2082 31.6431L29.3378 31.6294C29.4411 31.6294 29.5402 31.6704 29.6133 31.7435C29.6863 31.8165 29.7274 31.9156 29.7274 32.019L29.6861 44.0136C29.6861 44.0452 29.6924 44.0766 29.7047 44.1059C29.717 44.1351 29.7349 44.1615 29.7575 44.1837C29.7802 44.2059 29.807 44.2233 29.8364 44.2351C29.8659 44.2468 29.8974 44.2525 29.929 44.2519C31.8357 44.1938 33.721 44.1908 35.5849 44.2427C37.9713 44.3069 39.8459 44.1098 41.2086 43.6515C45.6224 42.1619 46.4382 38.3806 46.4015 33.9256C46.3649 29.602 46.3481 25.1959 46.3511 20.7073C46.3511 14.2723 42.657 11.6323 36.8636 11.7469C34.6117 11.7927 32.2971 11.7881 29.9199 11.7331C29.8942 11.7325 29.8687 11.737 29.8448 11.7461C29.8209 11.7553 29.7991 11.769 29.7807 11.7865C29.7624 11.804 29.7478 11.8249 29.7379 11.8481C29.7279 11.8712 29.7228 11.896 29.7228 11.9211L29.7136 24.9973C29.7136 25.0504 29.734 25.1016 29.7708 25.14C29.8074 25.1784 29.8576 25.2012 29.9107 25.2036C31.906 25.2769 33.9089 25.2708 35.9195 25.1852C36.5764 25.1577 37.0072 24.8598 37.212 24.2915C37.5557 23.329 37.872 20.0061 36.0478 19.8136C34.7247 19.673 33.365 19.6776 31.9686 19.8273C31.547 19.8701 31.3361 19.6791 31.3361 19.2544L31.3315 15.0286C31.3315 14.8819 31.4064 14.8055 31.5561 14.7994C33.8784 14.7261 36.0218 14.7368 37.9865 14.8315C43.2574 15.0836 43.0374 19.5019 42.964 23.3794C42.9274 25.2738 42.1222 26.5159 40.5486 27.1056C39.9833 27.3165 39.9849 27.5243 40.5532 27.729C42.2979 28.3554 43.2024 29.6799 43.2665 31.7027C43.3124 33.1144 43.3109 34.5245 43.262 35.9331C43.097 40.5211 40.2186 41.2819 36.254 41.204C34.6682 41.1765 33.1603 41.1918 31.7303 41.2498C31.68 41.2517 31.6298 41.2434 31.5829 41.2255C31.5359 41.2077 31.4931 41.1805 31.4571 41.1458C31.4211 41.1111 31.3927 41.0695 31.3734 41.0236C31.3542 40.9776 31.3446 40.9283 31.3453 40.8786L31.3636 36.5381C31.3636 36.309 31.4797 36.1959 31.712 36.199Z" fill="white"/>
</g>
</g>
<defs>
<clipPath id="clip0_1_34">
<rect width="55" height="55" fill="white"/>
</clipPath>
</defs>
</svg>
