<svg width="18" height="18" viewBox="0 0 18 18" fill="none" xmlns="http://www.w3.org/2000/svg">
<g clip-path="url(#clip0_1_1499)">
<path fill-rule="evenodd" clip-rule="evenodd" d="M12.1532 16.0191C11.1557 15.9824 8.32876 15.5917 5.36812 12.6318C2.40818 9.67114 2.01819 6.84489 1.98078 5.84669C1.92536 4.32551 3.0905 2.84796 4.43643 2.27093C4.59851 2.20095 4.776 2.1743 4.95148 2.19361C5.12697 2.21292 5.29441 2.27752 5.4374 2.38107C6.54573 3.18877 7.31048 4.41071 7.96717 5.3715C8.11165 5.58258 8.17343 5.83945 8.14073 6.09316C8.10803 6.34686 7.98313 6.57967 7.78983 6.74721L6.43836 7.75095C6.37307 7.7981 6.32711 7.86734 6.30901 7.94582C6.29092 8.0243 6.30193 8.10668 6.33999 8.17766C6.64617 8.7339 7.19064 9.56238 7.81408 10.1858C8.43821 10.8093 9.30548 11.3897 9.90052 11.7306C9.97512 11.7724 10.0629 11.7841 10.1459 11.7633C10.2289 11.7424 10.3007 11.6905 10.3466 11.6183L11.2264 10.2793C11.3881 10.0645 11.6267 9.92056 11.8922 9.87769C12.1577 9.83482 12.4294 9.89634 12.6506 10.0494C13.6252 10.7241 14.7626 11.4756 15.5953 12.5417C15.7072 12.6857 15.7785 12.8572 15.8015 13.0381C15.8245 13.2191 15.7985 13.4029 15.7262 13.5704C15.1464 14.9232 13.6792 16.0752 12.1532 16.0191Z" fill="#EA5C29"/>
</g>
<defs>
<clipPath id="clip0_1_1499">
<rect width="16.625" height="16.625" fill="white" transform="translate(0.6875 0.6875)"/>
</clipPath>
</defs>
</svg>
