<svg width="66" height="50" viewBox="0 0 66 50" fill="none" xmlns="http://www.w3.org/2000/svg">
<path d="M13.4638 25C9.71981 25.2416 6.76087 26.5097 4.58695 28.8044C2.41304 30.9783 1.32608 33.8164 1.32608 37.3188C1.32608 41.4251 2.5942 44.5652 5.13043 46.7391C7.66666 48.913 10.5652 50 13.8261 50C14.1884 50 14.5507 50 14.913 50C17.4493 50 19.6232 49.4565 21.4348 48.3696C23.1256 47.2826 24.5749 45.9541 25.7826 44.3841C26.8696 42.6932 27.6546 40.8213 28.1377 38.7681C28.6208 36.5942 28.8623 34.4203 28.8623 32.2464C28.8623 28.9855 28.2584 25.6643 27.0507 22.2826C25.843 18.901 24.2126 15.7609 22.1594 12.8623C19.9855 9.843 17.57 7.24638 14.913 5.07246C12.1353 2.77778 9.17632 1.08696 6.03623 0L0.782608 7.24638C3.80193 9.29952 6.45893 11.8961 8.75362 15.0362C11.0483 18.0556 12.6184 21.3768 13.4638 25ZM50.6014 25C46.8575 25.2416 43.8985 26.5097 41.7246 28.8044C39.5507 30.9783 38.4638 33.8164 38.4638 37.3188C38.4638 41.4251 39.7319 44.5652 42.2681 46.7391C44.8043 48.913 47.7633 50 51.1449 50C51.5072 50 51.8696 50 52.2319 50C54.7681 50 56.942 49.4565 58.7536 48.3696C60.4444 47.2826 61.8333 45.9541 62.9203 44.3841C64.0072 42.6932 64.7923 40.8213 65.2754 38.7681C65.7585 36.5942 66 34.4203 66 32.2464C66 28.9855 65.3961 25.6643 64.1884 22.2826C62.9807 18.901 61.3502 15.7609 59.2971 12.8623C57.1232 9.843 54.7077 7.24638 52.0507 5.07246C49.2729 2.77778 46.314 1.08696 43.1739 0L37.9203 7.24638C40.9396 9.29952 43.5966 11.8961 45.8913 15.0362C48.186 18.0556 49.756 21.3768 50.6014 25Z" fill="#EA5C29"/>
</svg>
