<svg width="14" height="11" viewBox="0 0 14 11" fill="none" xmlns="http://www.w3.org/2000/svg">
<path d="M13.011 4.98627L8.23592 0.211125C8.09961 0.0748182 7.91794 0 7.72423 0C7.5303 0 7.34874 0.0749257 7.21243 0.211125L6.7789 0.64477C6.6427 0.780861 6.56766 0.96264 6.56766 1.15646C6.56766 1.35017 6.6427 1.53807 6.7789 1.67417L9.56459 4.46598H0.714321C0.31529 4.46598 0 4.77837 0 5.17751V5.79057C0 6.1897 0.31529 6.53359 0.714321 6.53359H9.59619L6.779 9.34099C6.64281 9.4773 6.56777 9.65413 6.56777 9.84795C6.56777 10.0416 6.64281 10.221 6.779 10.3572L7.21254 10.7894C7.34885 10.9257 7.53041 11 7.72434 11C7.91805 11 8.09972 10.9248 8.23602 10.7884L13.0111 6.01341C13.1477 5.87667 13.2228 5.69414 13.2223 5.50011C13.2227 5.30543 13.1477 5.12279 13.011 4.98627Z" fill="#EA5C29"/>
</svg>
