<svg width="14" height="16" viewBox="0 0 14 16" fill="none" xmlns="http://www.w3.org/2000/svg">
<path fill-rule="evenodd" clip-rule="evenodd" d="M7 16C3.69989 16 2.05022 16 1.02511 14.828C-9.27183e-08 13.6576 0 11.7712 0 8C0 4.2288 -9.27183e-08 2.3432 1.02511 1.1712C2.05022 0 3.70067 0 7 0C10.3001 0 11.9498 0 12.9749 1.1712C14 2.344 14 4.2288 14 8C14 11.7712 14 13.6568 12.9749 14.828C11.9498 16 10.2993 16 7 16ZM9.33333 3.2H4.66667C4.305 3.2 4.12456 3.2 3.976 3.2408C3.77834 3.29535 3.59811 3.40243 3.4534 3.55127C3.30869 3.70012 3.20459 3.88549 3.15156 4.0888C3.11111 4.2432 3.11111 4.4288 3.11111 4.8C3.11111 5.1712 3.11111 5.3576 3.15078 5.5104C3.20382 5.71371 3.30791 5.89908 3.45262 6.04793C3.59733 6.19677 3.77756 6.30385 3.97522 6.3584C4.12533 6.4 4.30578 6.4 4.66667 6.4H9.33333C9.695 6.4 9.87544 6.4 10.024 6.3592C10.2217 6.30465 10.4019 6.19757 10.5466 6.04873C10.6913 5.89988 10.7954 5.71451 10.8484 5.5112C10.8889 5.3568 10.8889 5.1712 10.8889 4.8C10.8889 4.4288 10.8889 4.2424 10.8492 4.0896C10.7962 3.88629 10.6921 3.70092 10.5474 3.55207C10.4027 3.40323 10.2224 3.29615 10.0248 3.2416C9.87544 3.2 9.69422 3.2 9.33333 3.2ZM4.66667 8.8C4.66667 9.01217 4.58472 9.21566 4.43886 9.36569C4.293 9.51571 4.09517 9.6 3.88889 9.6C3.68261 9.6 3.48478 9.51571 3.33892 9.36569C3.19306 9.21566 3.11111 9.01217 3.11111 8.8C3.11111 8.58783 3.19306 8.38434 3.33892 8.23431C3.48478 8.08429 3.68261 8 3.88889 8C4.09517 8 4.293 8.08429 4.43886 8.23431C4.58472 8.38434 4.66667 8.58783 4.66667 8.8ZM7 9.6C7.20628 9.6 7.40411 9.51571 7.54997 9.36569C7.69583 9.21566 7.77778 9.01217 7.77778 8.8C7.77778 8.58783 7.69583 8.38434 7.54997 8.23431C7.40411 8.08429 7.20628 8 7 8C6.79372 8 6.59589 8.08429 6.45003 8.23431C6.30417 8.38434 6.22222 8.58783 6.22222 8.8C6.22222 9.01217 6.30417 9.21566 6.45003 9.36569C6.59589 9.51571 6.79372 9.6 7 9.6ZM10.8889 8.8C10.8889 9.01217 10.8069 9.21566 10.6611 9.36569C10.5152 9.51571 10.3174 9.6 10.1111 9.6C9.90483 9.6 9.707 9.51571 9.56114 9.36569C9.41528 9.21566 9.33333 9.01217 9.33333 8.8C9.33333 8.58783 9.41528 8.38434 9.56114 8.23431C9.707 8.08429 9.90483 8 10.1111 8C10.3174 8 10.5152 8.08429 10.6611 8.23431C10.8069 8.38434 10.8889 8.58783 10.8889 8.8ZM10.1111 12.8C10.3174 12.8 10.5152 12.7157 10.6611 12.5657C10.8069 12.4157 10.8889 12.2122 10.8889 12C10.8889 11.7878 10.8069 11.5843 10.6611 11.4343C10.5152 11.2843 10.3174 11.2 10.1111 11.2C9.90483 11.2 9.707 11.2843 9.56114 11.4343C9.41528 11.5843 9.33333 11.7878 9.33333 12C9.33333 12.2122 9.41528 12.4157 9.56114 12.5657C9.707 12.7157 9.90483 12.8 10.1111 12.8ZM7.77778 12C7.77778 12.2122 7.69583 12.4157 7.54997 12.5657C7.40411 12.7157 7.20628 12.8 7 12.8C6.79372 12.8 6.59589 12.7157 6.45003 12.5657C6.30417 12.4157 6.22222 12.2122 6.22222 12C6.22222 11.7878 6.30417 11.5843 6.45003 11.4343C6.59589 11.2843 6.79372 11.2 7 11.2C7.20628 11.2 7.40411 11.2843 7.54997 11.4343C7.69583 11.5843 7.77778 11.7878 7.77778 12ZM3.88889 12.8C4.09517 12.8 4.293 12.7157 4.43886 12.5657C4.58472 12.4157 4.66667 12.2122 4.66667 12C4.66667 11.7878 4.58472 11.5843 4.43886 11.4343C4.293 11.2843 4.09517 11.2 3.88889 11.2C3.68261 11.2 3.48478 11.2843 3.33892 11.4343C3.19306 11.5843 3.11111 11.7878 3.11111 12C3.11111 12.2122 3.19306 12.4157 3.33892 12.5657C3.48478 12.7157 3.68261 12.8 3.88889 12.8Z" fill="white"/>
</svg>
