<svg width="60" height="46" viewBox="0 0 60 46" fill="none" xmlns="http://www.w3.org/2000/svg">
<path d="M11.6667 23C8.22222 23.2222 5.5 24.3889 3.5 26.5C1.5 28.5 0.499996 31.1111 0.499996 34.3333C0.499996 38.1111 1.66667 41 4 43C6.33333 45 9 46 12 46C12.3333 46 12.6667 46 13 46C15.3333 46 17.3333 45.5 19 44.5C20.5556 43.5 21.8889 42.2778 23 40.8333C24 39.2778 24.7222 37.5556 25.1667 35.6667C25.6111 33.6667 25.8333 31.6667 25.8333 29.6667C25.8333 26.6667 25.2778 23.6111 24.1667 20.5C23.0556 17.3889 21.5556 14.5 19.6667 11.8333C17.6667 9.05556 15.4444 6.66667 13 4.66667C10.4444 2.55556 7.72222 1 4.83333 0L0 6.66667C2.77777 8.55556 5.22222 10.9444 7.33333 13.8333C9.44444 16.6111 10.8889 19.6667 11.6667 23ZM45.8333 23C42.3889 23.2222 39.6667 24.3889 37.6667 26.5C35.6667 28.5 34.6667 31.1111 34.6667 34.3333C34.6667 38.1111 35.8333 41 38.1667 43C40.5 45 43.2222 46 46.3333 46C46.6667 46 47 46 47.3333 46C49.6667 46 51.6667 45.5 53.3333 44.5C54.8889 43.5 56.1667 42.2778 57.1667 40.8333C58.1667 39.2778 58.8889 37.5556 59.3333 35.6667C59.7778 33.6667 60 31.6667 60 29.6667C60 26.6667 59.4444 23.6111 58.3333 20.5C57.2222 17.3889 55.7222 14.5 53.8333 11.8333C51.8333 9.05556 49.6111 6.66667 47.1667 4.66667C44.6111 2.55556 41.8889 1 39 0L34.1667 6.66667C36.9444 8.55556 39.3889 10.9444 41.5 13.8333C43.6111 16.6111 45.0556 19.6667 45.8333 23Z" fill="#E6E6E6"/>
</svg>
