<svg width="18" height="18" viewBox="0 0 18 18" fill="none" xmlns="http://www.w3.org/2000/svg">
<path d="M14.985 12.615L14.5125 15.96C14.4075 16.7025 13.77 17.25 13.0275 17.25H8.4075C8.01 17.25 7.44 17.0925 7.1625 16.8075L3.75 13.215L4.3725 12.585C4.5525 12.405 4.8075 12.3225 5.0625 12.375L7.5 12.93V4.875C7.5 4.2525 8.0025 3.75 8.625 3.75C9.2475 3.75 9.75 4.2525 9.75 4.875V9.375H10.4325C10.665 9.375 10.8975 9.4275 11.1 9.5325L14.1675 11.0625C14.745 11.355 15.075 11.9775 14.985 12.615ZM9 1.875C12.555 1.875 14.7525 3.765 15.3225 5.25H16.5C15.9525 3.09 13.1175 0.75 9 0.75C6.585 0.75 4.365 1.5975 2.625 3.015V1.5H1.5V5.25H5.25V4.125H3.0675C4.6575 2.73 6.7275 1.875 9 1.875Z" fill="#CACACA"/>
</svg>
