<svg width="66" height="50" viewBox="0 0 66 50" fill="none" xmlns="http://www.w3.org/2000/svg">
<path d="M12.6806 25C8.9366 25.2416 5.97766 26.5097 3.80375 28.8044C1.62984 30.9783 0.542877 33.8164 0.542877 37.3188C0.542877 41.4251 1.811 44.5652 4.34723 46.7391C6.88346 48.913 9.78201 50 13.0429 50C13.4052 50 13.7675 50 14.1298 50C16.6661 50 18.84 49.4565 20.6516 48.3696C22.3424 47.2826 23.7917 45.9541 24.9994 44.3841C26.0864 42.6932 26.8714 40.8213 27.3545 38.7681C27.8376 36.5942 28.0791 34.4203 28.0791 32.2464C28.0791 28.9855 27.4752 25.6643 26.2675 22.2826C25.0598 18.901 23.4294 15.7609 21.3762 12.8623C19.2023 9.843 16.7868 7.24638 14.1298 5.07246C11.3521 2.77778 8.39312 1.08696 5.25303 0L-0.000595093 7.24638C3.01873 9.29952 5.67573 11.8961 7.97042 15.0362C10.2651 18.0556 11.8352 21.3768 12.6806 25ZM49.8182 25C46.0743 25.2416 43.1153 26.5097 40.9414 28.8044C38.7675 30.9783 37.6806 33.8164 37.6806 37.3188C37.6806 41.4251 38.9487 44.5652 41.4849 46.7391C44.0211 48.913 46.9801 50 50.3617 50C50.724 50 51.0864 50 51.4487 50C53.9849 50 56.1588 49.4565 57.9704 48.3696C59.6612 47.2826 61.0501 45.9541 62.1371 44.3841C63.224 42.6932 64.0091 40.8213 64.4922 38.7681C64.9753 36.5942 65.2168 34.4203 65.2168 32.2464C65.2168 28.9855 64.6129 25.6643 63.4052 22.2826C62.1975 18.901 60.567 15.7609 58.5139 12.8623C56.34 9.843 53.9245 7.24638 51.2675 5.07246C48.4897 2.77778 45.5308 1.08696 42.3907 0L37.1371 7.24638C40.1564 9.29952 42.8134 11.8961 45.1081 15.0362C47.4028 18.0556 48.9728 21.3768 49.8182 25Z" fill="black" fill-opacity="0.05"/>
</svg>
